<svg width="50" height="50" viewBox="0 0 50 50" fill="none" xmlns="http://www.w3.org/2000/svg">
<path d="M24.3754 29.8963V40.3311C24.3754 44.7191 20.8874 48.3043 16.6184 48.3043C12.3494 48.3043 8.86133 44.7191 8.86133 40.3311V31.6087" stroke="#009B8E" stroke-width="2" stroke-miterlimit="10" stroke-linecap="round" stroke-linejoin="round"/>
<path d="M10.3707 8.22408H7.24707V2.92642C7.24707 2.23077 7.81974 1.64214 8.49653 1.64214H9.12126C9.79805 1.64214 10.3707 2.23077 10.3707 2.92642V8.22408Z" stroke="#009B8E" stroke-width="2" stroke-miterlimit="10" stroke-linecap="round" stroke-linejoin="round"/>
<path d="M14.7959 17.6421H2.82191C2.14512 17.6421 1.62451 17.107 1.62451 16.4114V16.2508C1.62451 15.5552 2.14512 15.0201 2.82191 15.0201H14.7959C15.4727 15.0201 15.9933 15.5552 15.9933 16.2508V16.4114C15.9933 17.107 15.4727 17.6421 14.7959 17.6421Z" stroke="#131431" stroke-width="2" stroke-miterlimit="10" stroke-linecap="round" stroke-linejoin="round"/>
<path d="M14.7959 10.8462H2.82191C2.14512 10.8462 1.62451 10.311 1.62451 9.61539V9.45485C1.62451 8.7592 2.14512 8.22408 2.82191 8.22408H14.7959C15.4727 8.22408 15.9933 8.7592 15.9933 9.45485V9.61539C15.9933 10.311 15.4727 10.8462 14.7959 10.8462Z" stroke="#131431" stroke-width="2" stroke-miterlimit="10" stroke-linecap="round" stroke-linejoin="round"/>
<path d="M14.9002 17.9097V28.9331C14.9002 30.3779 13.7548 31.5552 12.3492 31.5552H5.321C3.91536 31.5552 2.77002 30.3779 2.77002 28.9331V17.6421" stroke="#131431" stroke-width="2" stroke-miterlimit="10" stroke-linecap="round" stroke-linejoin="round"/>
<path d="M15.3687 11.1672V14.8595" stroke="#131431" stroke-width="2" stroke-miterlimit="10" stroke-linecap="round" stroke-linejoin="round"/>
<path d="M2.30127 15.0201V10.8462" stroke="#131431" stroke-width="2" stroke-miterlimit="10" stroke-linecap="round" stroke-linejoin="round"/>
</svg>
