<svg width="50" height="50" viewBox="0 0 50 50" fill="none" xmlns="http://www.w3.org/2000/svg">
<path d="M14.919 4.82822C12.0361 7.79053 12.0361 12.5758 14.919 15.5381" stroke="#009B8E" stroke-width="2" stroke-miterlimit="10" stroke-linecap="round" stroke-linejoin="round"/>
<path d="M13.3421 1.50131C8.65744 6.28659 8.65744 13.9886 13.3421 18.7739" stroke="#009B8E" stroke-width="2" stroke-miterlimit="10" stroke-linecap="round" stroke-linejoin="round"/>
<path d="M16.811 7.79053C15.4146 9.20332 15.4146 11.482 16.811 12.8948" stroke="#009B8E" stroke-width="2" stroke-miterlimit="10" stroke-linecap="round" stroke-linejoin="round"/>
<path d="M26.7656 4.82822C29.6485 7.79053 29.6485 12.5758 26.7656 15.5381" stroke="#009B8E" stroke-width="2" stroke-miterlimit="10" stroke-linecap="round" stroke-linejoin="round"/>
<path d="M28.3423 1.50131C33.027 6.28659 33.027 13.9886 28.3423 18.7739" stroke="#009B8E" stroke-width="2" stroke-miterlimit="10" stroke-linecap="round" stroke-linejoin="round"/>
<path d="M24.874 7.79053C26.2704 9.20332 26.2704 11.482 24.874 12.8948" stroke="#009B8E" stroke-width="2" stroke-miterlimit="10" stroke-linecap="round" stroke-linejoin="round"/>
<path d="M20.9998 12.3479C22.0447 12.3479 22.8917 11.491 22.8917 10.4338C22.8917 9.37669 22.0447 8.51971 20.9998 8.51971C19.9549 8.51971 19.1079 9.37669 19.1079 10.4338C19.1079 11.491 19.9549 12.3479 20.9998 12.3479Z" stroke="#131431" stroke-width="2" stroke-miterlimit="10" stroke-linecap="round" stroke-linejoin="round"/>
<path d="M38.027 37.596H3.97296C2.62161 37.596 1.54053 36.5022 1.54053 35.135V28.9369C1.54053 27.5697 2.62161 26.4759 3.97296 26.4759H38.027C39.3784 26.4759 40.4594 27.5697 40.4594 28.9369V35.1805C40.4594 36.5022 39.3784 37.596 38.027 37.596Z" stroke="#131431" stroke-width="2" stroke-miterlimit="10" stroke-linecap="round" stroke-linejoin="round"/>
<path d="M35.91 32.2136H27.2163C26.7208 32.2136 26.3154 31.8034 26.3154 31.3021V30.7096C26.3154 30.2083 26.7208 29.7981 27.2163 29.7981H35.91C36.4055 29.7981 36.8109 30.2083 36.8109 30.7096V31.3021C36.7659 31.849 36.4055 32.2136 35.91 32.2136Z" stroke="#131431" stroke-width="1.5" stroke-miterlimit="10" stroke-linecap="round" stroke-linejoin="round"/>
<path d="M14.7836 32.2136H6.08987C5.59437 32.2136 5.18896 31.8034 5.18896 31.3021V30.7096C5.18896 30.2083 5.59437 29.7981 6.08987 29.7981H14.7836C15.2791 29.7981 15.6845 30.2083 15.6845 30.7096V31.3021C15.6845 31.849 15.2791 32.2136 14.7836 32.2136Z" stroke="#131431" stroke-width="1.5" stroke-miterlimit="10" stroke-linecap="round" stroke-linejoin="round"/>
<path d="M21 12.5758V26.2936" stroke="#131431" stroke-width="2" stroke-miterlimit="10" stroke-linecap="round" stroke-linejoin="round"/>
</svg>
