<svg width="50" height="50" viewBox="0 0 50 50" fill="none" xmlns="http://www.w3.org/2000/svg">
<path d="M20.898 40.4098H8.03068C7.45585 40.4098 7.01367 39.9557 7.01367 39.3655V38.7299C7.01367 38.1396 7.45585 37.6856 8.03068 37.6856H20.898C21.4729 37.6856 21.915 38.1396 21.915 38.7299V39.3655C21.915 39.9557 21.4286 40.4098 20.898 40.4098Z" stroke="#131431" stroke-width="2" stroke-miterlimit="10" stroke-linecap="round" stroke-linejoin="round"/>
<path d="M9.97648 23.3383C9.40165 19.5244 7.72137 15.983 5.11253 13.168L4.75879 12.8048" stroke="#131431" stroke-width="2" stroke-miterlimit="10" stroke-linecap="round" stroke-linejoin="round"/>
<path d="M14.2212 23.0658V5.6311" stroke="#131431" stroke-width="2" stroke-miterlimit="10" stroke-linecap="round" stroke-linejoin="round"/>
<path d="M12.0545 23.0658C11.6123 17.7537 10.33 12.5323 8.20752 7.62883" stroke="#131431" stroke-width="2" stroke-miterlimit="10" stroke-linecap="round" stroke-linejoin="round"/>
<path d="M3.25525 13.0318C4.20766 13.0318 4.97974 12.239 4.97974 11.2611C4.97974 10.2831 4.20766 9.49036 3.25525 9.49036C2.30284 9.49036 1.53076 10.2831 1.53076 11.2611C1.53076 12.239 2.30284 13.0318 3.25525 13.0318Z" stroke="#009B8E" stroke-width="2" stroke-miterlimit="10" stroke-linecap="round" stroke-linejoin="round"/>
<path d="M7.36756 7.31102C8.31997 7.31102 9.09205 6.51824 9.09205 5.5403C9.09205 4.56236 8.31997 3.76958 7.36756 3.76958C6.41515 3.76958 5.64307 4.56236 5.64307 5.5403C5.64307 6.51824 6.41515 7.31102 7.36756 7.31102Z" stroke="#009B8E" stroke-width="2" stroke-miterlimit="10" stroke-linecap="round" stroke-linejoin="round"/>
<path d="M14.2211 5.08627C15.1735 5.08627 15.9456 4.29349 15.9456 3.31555C15.9456 2.33761 15.1735 1.54484 14.2211 1.54484C13.2687 1.54484 12.4966 2.33761 12.4966 3.31555C12.4966 4.29349 13.2687 5.08627 14.2211 5.08627Z" stroke="#009B8E" stroke-width="2" stroke-miterlimit="10" stroke-linecap="round" stroke-linejoin="round"/>
<path d="M18.5547 23.2475C19.218 19.3428 20.9867 15.6652 23.6839 12.7594" stroke="#131431" stroke-width="2" stroke-miterlimit="10" stroke-linecap="round" stroke-linejoin="round"/>
<path d="M16.3438 23.2474C16.7417 17.8445 18.0682 12.5778 20.1907 7.62883" stroke="#131431" stroke-width="2" stroke-miterlimit="10" stroke-linecap="round" stroke-linejoin="round"/>
<path d="M18.5544 37.5494H10.3741C9.44555 37.5494 8.69385 36.7775 8.69385 35.8241V25.0636C8.69385 24.2463 9.22446 23.5199 9.97616 23.3383C10.1088 23.2929 10.2857 23.2929 10.4183 23.2929H18.466C19.4387 23.2929 20.2347 24.1101 20.2347 25.109V35.8241C20.2347 36.7775 19.483 37.5494 18.5544 37.5494Z" stroke="#131431" stroke-width="2" stroke-miterlimit="10" stroke-linecap="round" stroke-linejoin="round"/>
<path d="M24.745 13.0318C25.6974 13.0318 26.4695 12.239 26.4695 11.2611C26.4695 10.2831 25.6974 9.49036 24.745 9.49036C23.7926 9.49036 23.0205 10.2831 23.0205 11.2611C23.0205 12.239 23.7926 13.0318 24.745 13.0318Z" stroke="#009B8E" stroke-width="2" stroke-miterlimit="10" stroke-linecap="round" stroke-linejoin="round"/>
<path d="M21.119 7.31102C22.0714 7.31102 22.8435 6.51824 22.8435 5.5403C22.8435 4.56236 22.0714 3.76958 21.119 3.76958C20.1666 3.76958 19.3945 4.56236 19.3945 5.5403C19.3945 6.51824 20.1666 7.31102 21.119 7.31102Z" stroke="#009B8E" stroke-width="2" stroke-miterlimit="10" stroke-linecap="round" stroke-linejoin="round"/>
</svg>
