<svg width="50" height="50" viewBox="0 0 50 50" fill="none" xmlns="http://www.w3.org/2000/svg">
<path d="M16.3064 13.8219H12.792V21.8801H16.3064V13.8219Z" stroke="#009B8E" stroke-width="1.6" stroke-miterlimit="10" stroke-linecap="round" stroke-linejoin="round"/>
<path d="M21.9017 11.1062H18.3872V21.8801H21.9017V11.1062Z" stroke="#009B8E" stroke-width="1.6" stroke-miterlimit="10" stroke-linecap="round" stroke-linejoin="round"/>
<path d="M27.6355 9.0137H24.1211V21.9247H27.6355V9.0137Z" stroke="#009B8E" stroke-width="1.6" stroke-miterlimit="10" stroke-linecap="round" stroke-linejoin="round"/>
<path d="M40.3988 19.1644C40.3988 23.1712 37.023 26.4212 32.8612 26.4212H11.3121C5.94789 26.4212 1.60107 22.2363 1.60107 17.0719C1.60107 11.9075 5.94789 7.7226 11.3121 7.7226C11.9595 7.7226 12.5606 7.76712 13.1618 7.90068C15.0115 4.11643 18.8496 1.53424 23.1964 1.53424C29.0693 1.53424 33.8785 6.11986 34.4797 12.0411C37.9016 12.7979 40.3988 15.6918 40.3988 19.1644Z" stroke="#131431" stroke-width="2" stroke-miterlimit="10" stroke-linecap="round" stroke-linejoin="round"/>
</svg>
