<svg width="50" height="50" viewBox="0 0 50 50" fill="none" xmlns="http://www.w3.org/2000/svg">
<path d="M21.0481 23.4064C22.4023 23.4064 23.5 22.277 23.5 20.8838C23.5 19.4907 22.4023 18.3613 21.0481 18.3613C19.694 18.3613 18.5962 19.4907 18.5962 20.8838C18.5962 22.277 19.694 23.4064 21.0481 23.4064Z" stroke="#009B8E" stroke-width="2.4" stroke-miterlimit="10" stroke-linecap="round" stroke-linejoin="round"/>
<path d="M11.9136 17.1247C13.3559 15.2946 16.2886 12.4753 20.952 12.4753C25.904 12.4753 28.9328 15.1957 30.4232 17.0258" stroke="#131431" stroke-width="2.4" stroke-miterlimit="10" stroke-linecap="round" stroke-linejoin="round"/>
<path d="M6.91357 14.9484C8.16357 13.0193 12.6347 7.28171 20.6636 7.28171C29.2213 7.28171 33.7405 12.8215 35.0867 14.8494" stroke="#131431" stroke-width="2.4" stroke-miterlimit="10" stroke-linecap="round" stroke-linejoin="round"/>
<path d="M1.57715 12.2774C3.16369 9.85375 9.31754 1.59354 20.5675 1.59354C32.5868 1.59354 38.7887 9.55698 40.4233 12.129" stroke="#131431" stroke-width="2.4" stroke-miterlimit="10" stroke-linecap="round" stroke-linejoin="round"/>
</svg>
