<svg width="50" height="50" viewBox="0 0 50 50" fill="none" xmlns="http://www.w3.org/2000/svg">
<path d="M33.652 11.656C32.3562 6.79174 27.4611 3.85393 22.5659 5.05795" stroke="#009B8E" stroke-width="2" stroke-miterlimit="10" stroke-linecap="round" stroke-linejoin="round"/>
<path d="M38.0193 12.0895C36.0036 4.23927 28.037 -0.528651 20.2144 1.44594" stroke="#009B8E" stroke-width="2" stroke-miterlimit="10" stroke-linecap="round" stroke-linejoin="round"/>
<path d="M29.3807 11.8486C28.8048 9.53693 26.4052 8.14026 24.1016 8.71819" stroke="#009B8E" stroke-width="2" stroke-miterlimit="10" stroke-linecap="round" stroke-linejoin="round"/>
<path d="M1.63386 18.2416C1.58587 18.4342 1.53788 18.675 1.48989 18.8677C-0.285804 26.3326 2.83366 34.3754 9.74447 38.4691C16.8472 42.7073 25.6777 41.4551 31.3407 35.9647L14.9756 26.1881L1.63386 18.2416Z" stroke="#131431" stroke-width="2" stroke-miterlimit="10" stroke-linecap="round" stroke-linejoin="round"/>
<path d="M15.0239 25.3212L22.9426 16.4115L19.1512 28.1627" stroke="#131431" stroke-width="2" stroke-miterlimit="10" stroke-linecap="round" stroke-linejoin="round"/>
<path d="M23.9978 16.7004C25.2435 16.7004 26.2534 15.687 26.2534 14.4369C26.2534 13.1867 25.2435 12.1733 23.9978 12.1733C22.7521 12.1733 21.7422 13.1867 21.7422 14.4369C21.7422 15.687 22.7521 16.7004 23.9978 16.7004Z" stroke="#131431" stroke-width="2" stroke-miterlimit="10" stroke-linecap="round" stroke-linejoin="round"/>
</svg>
