<svg width="43" height="40" viewBox="0 0 43 40" fill="none" xmlns="http://www.w3.org/2000/svg">
<path d="M29.0471 29.4371L29.1619 35.7658C29.1619 36.998 28.1287 38.0061 26.8658 38.0061H3.78989C2.52702 38.0061 1.49377 36.998 1.49377 35.7658V6.64244C1.49377 5.41029 2.52702 4.40218 3.78989 4.40218H26.9232C28.1861 4.40218 29.2193 5.41029 29.2193 6.64244V12.8032" stroke="#131431" stroke-width="2" stroke-miterlimit="10" stroke-linecap="round" stroke-linejoin="round"/>
<path d="M12.1133 4.06614V2.834C12.1133 2.32994 12.5151 1.9379 13.0317 1.9379H17.8536C18.3702 1.9379 18.772 2.32994 18.772 2.834V4.06614" stroke="#131431" stroke-width="2" stroke-miterlimit="10" stroke-linecap="round" stroke-linejoin="round"/>
<path d="M10.4486 13.4192H21.8718" stroke="#009B8E" stroke-width="2" stroke-miterlimit="10" stroke-linecap="round" stroke-linejoin="round"/>
<path d="M10.4486 21.0921H21.2977" stroke="#009B8E" stroke-width="2" stroke-miterlimit="10" stroke-linecap="round" stroke-linejoin="round"/>
<path d="M10.4486 28.1489H21.8718" stroke="#009B8E" stroke-width="2" stroke-miterlimit="10" stroke-linecap="round" stroke-linejoin="round"/>
<path d="M32.5487 25.5726C31.9172 25.5726 31.4006 25.4606 30.884 25.2366C30.3674 25.0126 30.0229 24.6765 29.6785 24.2845C29.3915 23.8924 29.1619 23.3884 29.1045 22.8283L30.5396 22.6043C30.6544 23.1084 30.884 23.5004 31.2858 23.7804C31.6876 24.0605 32.0894 24.2285 32.6635 24.2285C33.1801 24.2285 33.5819 24.1165 33.9263 23.8925C34.2707 23.6684 34.443 23.3884 34.443 22.9963C34.443 22.7723 34.3855 22.5483 34.2133 22.3803C34.0411 22.2123 33.8115 22.1002 33.4671 21.9882L31.3432 21.3722C30.0803 20.9801 29.5063 20.252 29.5063 19.1879C29.5063 18.6838 29.6211 18.2358 29.9081 17.8437C30.1377 17.4517 30.5396 17.1717 30.9414 16.9476C31.4006 16.7236 31.9172 16.6676 32.5487 16.6676C33.1227 16.6676 33.6393 16.7796 34.0985 16.9476C34.5578 17.1717 34.9022 17.4517 35.2466 17.7877C35.5336 18.1798 35.7632 18.6278 35.878 19.1319L34.3855 19.4119C34.3281 19.1319 34.2133 18.9079 34.0411 18.6838C33.8689 18.4598 33.6393 18.2918 33.4097 18.1798C33.1801 18.0678 32.8931 18.0118 32.5487 18.0118C32.2616 18.0118 31.9746 18.0678 31.745 18.1238C31.5154 18.2358 31.3432 18.3478 31.171 18.5158C31.0562 18.6838 30.9414 18.8519 30.9414 19.0759C30.9414 19.2999 31.0562 19.5239 31.2284 19.692C31.4006 19.86 31.745 20.028 32.1468 20.14L33.7541 20.5881C34.5004 20.8121 35.0744 21.0921 35.4188 21.4842C35.7632 21.8762 35.9354 22.3243 35.9354 22.9403C35.9354 23.5004 35.8206 23.9485 35.5336 24.3405C35.2466 24.7325 34.9022 25.0686 34.3855 25.2926C33.7541 25.4606 33.1801 25.5726 32.5487 25.5726ZM31.745 17.0036V15.6035H33.2375V17.0036H31.745ZM31.745 26.5808V25.1806H33.2375V26.5808H31.745Z" fill="#009B8E"/>
<path d="M32.4339 29.7171C37.3161 29.7171 41.2739 25.8556 41.2739 21.0921C41.2739 16.3287 37.3161 12.4671 32.4339 12.4671C27.5517 12.4671 23.5939 16.3287 23.5939 21.0921C23.5939 25.8556 27.5517 29.7171 32.4339 29.7171Z" stroke="#009B8E" stroke-width="2" stroke-miterlimit="10" stroke-linecap="round" stroke-linejoin="round"/>
<path d="M5.29819 15.0156L5.24603 15.0934H5.33972H5.91375H5.94094L5.95572 15.0706L6.60258 14.0713L7.24944 15.0706L7.26422 15.0934H7.29142H7.92285H8.01654L7.96438 15.0156L7.00773 13.5881L8.02103 12.16L8.07704 12.0811H7.98025H7.34882H7.32243L7.30753 12.1029L6.65999 13.0506L6.01244 12.1029L5.99755 12.0811H5.97115H5.33972H5.24603L5.29819 12.1589L6.25538 13.5872L5.29819 15.0156Z" fill="#009B8E" stroke="#009B8E" stroke-width="0.1"/>
<path d="M5.29819 22.5205L5.24603 22.5983H5.33972H5.91375H5.93975L5.95469 22.577L6.65833 21.5736L7.30684 22.5755L7.32162 22.5983H7.34882H7.98025H8.07395L8.02178 22.5205L7.06459 21.0921L8.02178 19.6638L8.07395 19.586H7.98025H7.34882H7.32243L7.30753 19.6077L6.65999 20.5554L6.01244 19.6077L5.99755 19.586H5.97115H5.33972H5.24603L5.29819 19.6638L6.25538 21.0921L5.29819 22.5205Z" fill="#009B8E" stroke="#009B8E" stroke-width="0.1"/>
<path d="M5.29819 29.5773L5.24603 29.6551H5.33972H5.91375H5.94094L5.95572 29.6323L6.60258 28.633L7.24944 29.6323L7.26422 29.6551H7.29142H7.92285H8.01654L7.96438 29.5773L7.00773 28.1498L8.02103 26.7217L8.07704 26.6428H7.98025H7.34882H7.32243L7.30753 26.6646L6.65999 27.6123L6.01244 26.6646L5.99755 26.6428H5.97115H5.33972H5.24603L5.29819 26.7206L6.25538 28.1489L5.29819 29.5773Z" fill="#009B8E" stroke="#009B8E" stroke-width="0.1"/>
</svg>
